<mxfile host="app.diagrams.net" agent="Mozilla/5.0 (Windows NT 10.0; Win64; x64) AppleWebKit/537.36 (KHTML, like Gecko) Chrome/135.0.0.0 Safari/537.36" version="26.2.9">
  <diagram name="第 1 页" id="ccLx-UHbtkZaUccEYI7R">
    <mxGraphModel dx="1428" dy="743" grid="1" gridSize="10" guides="1" tooltips="1" connect="1" arrows="1" fold="1" page="1" pageScale="1" pageWidth="2000" pageHeight="2000" math="0" shadow="0">
      <root>
        <mxCell id="0" />
        <mxCell id="1" parent="0" />
        <mxCell id="8pVYluNRPMLra0pPgN6f-12" style="edgeStyle=orthogonalEdgeStyle;rounded=0;orthogonalLoop=1;jettySize=auto;html=1;exitX=0.5;exitY=1;exitDx=0;exitDy=0;entryX=0.5;entryY=0;entryDx=0;entryDy=0;" edge="1" parent="1" source="8pVYluNRPMLra0pPgN6f-1" target="8pVYluNRPMLra0pPgN6f-11">
          <mxGeometry relative="1" as="geometry" />
        </mxCell>
        <mxCell id="8pVYluNRPMLra0pPgN6f-1" value="开始" style="rounded=1;whiteSpace=wrap;html=1;" vertex="1" parent="1">
          <mxGeometry x="510" y="130" width="100" height="50" as="geometry" />
        </mxCell>
        <mxCell id="8pVYluNRPMLra0pPgN6f-4" style="edgeStyle=orthogonalEdgeStyle;rounded=0;orthogonalLoop=1;jettySize=auto;html=1;exitX=1;exitY=0.5;exitDx=0;exitDy=0;" edge="1" parent="1" source="8pVYluNRPMLra0pPgN6f-2" target="8pVYluNRPMLra0pPgN6f-3">
          <mxGeometry relative="1" as="geometry" />
        </mxCell>
        <mxCell id="8pVYluNRPMLra0pPgN6f-16" value="否" style="edgeLabel;html=1;align=center;verticalAlign=middle;resizable=0;points=[];" vertex="1" connectable="0" parent="8pVYluNRPMLra0pPgN6f-4">
          <mxGeometry x="-0.0824" y="-1" relative="1" as="geometry">
            <mxPoint as="offset" />
          </mxGeometry>
        </mxCell>
        <mxCell id="8pVYluNRPMLra0pPgN6f-9" style="edgeStyle=orthogonalEdgeStyle;rounded=0;orthogonalLoop=1;jettySize=auto;html=1;exitX=0.5;exitY=1;exitDx=0;exitDy=0;entryX=0.5;entryY=0;entryDx=0;entryDy=0;" edge="1" parent="1" source="8pVYluNRPMLra0pPgN6f-2" target="8pVYluNRPMLra0pPgN6f-8">
          <mxGeometry relative="1" as="geometry" />
        </mxCell>
        <mxCell id="8pVYluNRPMLra0pPgN6f-10" value="否" style="edgeLabel;html=1;align=center;verticalAlign=middle;resizable=0;points=[];" vertex="1" connectable="0" parent="8pVYluNRPMLra0pPgN6f-9">
          <mxGeometry x="-0.36" relative="1" as="geometry">
            <mxPoint as="offset" />
          </mxGeometry>
        </mxCell>
        <mxCell id="8pVYluNRPMLra0pPgN6f-17" value="是" style="edgeLabel;html=1;align=center;verticalAlign=middle;resizable=0;points=[];" vertex="1" connectable="0" parent="8pVYluNRPMLra0pPgN6f-9">
          <mxGeometry x="-0.3101" y="-1" relative="1" as="geometry">
            <mxPoint as="offset" />
          </mxGeometry>
        </mxCell>
        <mxCell id="8pVYluNRPMLra0pPgN6f-2" value="是否进入配置模式" style="rhombus;whiteSpace=wrap;html=1;" vertex="1" parent="1">
          <mxGeometry x="495" y="330" width="130" height="90" as="geometry" />
        </mxCell>
        <mxCell id="8pVYluNRPMLra0pPgN6f-3" value="退出" style="rounded=1;whiteSpace=wrap;html=1;" vertex="1" parent="1">
          <mxGeometry x="710" y="357.5" width="100" height="35" as="geometry" />
        </mxCell>
        <mxCell id="8pVYluNRPMLra0pPgN6f-20" style="edgeStyle=orthogonalEdgeStyle;rounded=0;orthogonalLoop=1;jettySize=auto;html=1;exitX=0.5;exitY=1;exitDx=0;exitDy=0;entryX=0.5;entryY=0;entryDx=0;entryDy=0;" edge="1" parent="1" source="8pVYluNRPMLra0pPgN6f-8" target="8pVYluNRPMLra0pPgN6f-19">
          <mxGeometry relative="1" as="geometry" />
        </mxCell>
        <mxCell id="8pVYluNRPMLra0pPgN6f-8" value="网络配置" style="rounded=1;whiteSpace=wrap;html=1;" vertex="1" parent="1">
          <mxGeometry x="505" y="460" width="110" height="40" as="geometry" />
        </mxCell>
        <mxCell id="8pVYluNRPMLra0pPgN6f-13" style="edgeStyle=orthogonalEdgeStyle;rounded=0;orthogonalLoop=1;jettySize=auto;html=1;exitX=0.5;exitY=1;exitDx=0;exitDy=0;" edge="1" parent="1" source="8pVYluNRPMLra0pPgN6f-11">
          <mxGeometry relative="1" as="geometry">
            <mxPoint x="560" y="330" as="targetPoint" />
          </mxGeometry>
        </mxCell>
        <mxCell id="8pVYluNRPMLra0pPgN6f-14" value="否" style="edgeLabel;html=1;align=center;verticalAlign=middle;resizable=0;points=[];" vertex="1" connectable="0" parent="8pVYluNRPMLra0pPgN6f-13">
          <mxGeometry x="-0.0442" y="-2" relative="1" as="geometry">
            <mxPoint x="2" as="offset" />
          </mxGeometry>
        </mxCell>
        <mxCell id="8pVYluNRPMLra0pPgN6f-11" value="是否有可用wifi" style="rhombus;whiteSpace=wrap;html=1;" vertex="1" parent="1">
          <mxGeometry x="495" y="210" width="130" height="70" as="geometry" />
        </mxCell>
        <mxCell id="8pVYluNRPMLra0pPgN6f-19" value="task启动" style="rounded=1;whiteSpace=wrap;html=1;" vertex="1" parent="1">
          <mxGeometry x="505" y="530" width="110" height="40" as="geometry" />
        </mxCell>
      </root>
    </mxGraphModel>
  </diagram>
</mxfile>
